<?xml version="1.0" encoding="utf-8"?>
<!-- Generator: Adobe Illustrator 16.0.3, SVG Export Plug-In . SVG Version: 6.00 Build 0)  -->
<!DOCTYPE svg PUBLIC "-//W3C//DTD SVG 1.1//EN" "http://www.w3.org/Graphics/SVG/1.1/DTD/svg11.dtd">
<svg version="1.1" id="Layer_1" xmlns="http://www.w3.org/2000/svg" xmlns:xlink="http://www.w3.org/1999/xlink" x="0px" y="0px"
	 width="454px" height="230px" viewBox="0 0 454 230" enable-background="new 0 0 454 230" xml:space="preserve">
<g>
	<g>
		<path fill-rule="evenodd" clip-rule="evenodd" fill="#F28633" d="M243.715,131.316c-0.746,0.204-1.502,0.269-2.393,0.269
			c-4.165,0-7.583-2.8-7.583-6.765c0-3.622,3.418-5.808,8.066-7.72c0.684-0.273,1.298-0.549,1.909-0.752
			c3.897-1.502,7.859-2.873,10.048-4.372C253.286,118.261,251.646,129.468,243.715,131.316L243.715,131.316z M246.519,72.269
			c-0.96,0-1.848,0-2.804,0.069c-10.179,0.614-21.249,4.578-28.908,10.524v19.477c6.765-6.356,18.321-11.07,28.162-11.07h0.746
			c4.309,0.204,9.434,2.047,9.434,6.353c0,3.211-3.967,4.717-9.434,5.942c-12.303,2.873-32.32,4.786-32.32,24.125
			c0,11.757,10.177,18.249,21.319,18.249c4.036,0,7.79-0.822,11.001-2.393c5.127-2.394,8.953-6.561,10.662-11.961h0.27v14.281
			h20.918V93.728C275.564,76.301,258.337,72.269,246.519,72.269z"/>
		<path fill-rule="evenodd" clip-rule="evenodd" fill="#96989A" d="M426.45,52.587c-8.815,0-14.482,1.916-14.482,8.407
			c0,6.833,6.285,8.335,14.482,8.335c8.404,0,14.557-1.502,14.557-8.335C441.007,54.503,435.337,52.587,426.45,52.587z"/>
		<path fill-rule="evenodd" clip-rule="evenodd" fill="#F28633" d="M414.154,145.938h24.598v-73.67
			c-3.826,1.295-7.858,2.117-12.302,2.117c-4.441,0-8.471-0.822-12.296-2.117V145.938z"/>
		<path fill-rule="evenodd" clip-rule="evenodd" fill="#F28633" d="M348.75,92.495h11.826v32.395
			c0,13.804,9.564,21.048,23.987,21.048c8.47,0,16.262-3.146,20.157-8.408v-17.564c-2.803,5.059-6.153,7.109-11.55,7.109
			c-4.035,0-7.993-2.527-7.993-7.448V92.495h22.14V72.338H385.45V54.98h-13.193c-3.825,10.452-11.339,21.044-23.507,23.645V92.495z"
			/>
		<path fill-rule="evenodd" clip-rule="evenodd" fill="#F28633" d="M341.92,80.334c-6.222-6.153-14.764-8.066-22.625-8.066
			c-25.352,0-36.898,14.761-36.898,36.766c0,19.546,10.11,36.904,34.854,36.904c9.567,0,18.794-2.807,24.67-9.844v-19.816
			c-4.989,6.288-10.661,9.976-19.135,9.976c-11.957,0-16.542-7.586-16.542-15.648c0-10.932,5.679-16.674,17.226-16.674
			c5.939,0,12.229,1.574,18.451,7.928V80.334z"/>
		<path fill-rule="evenodd" clip-rule="evenodd" fill="#96989A" d="M102.331,188.581c-6.155,3.208-13.328,4.987-20.914,4.987
			c-21.321,0-40.661-13.601-40.661-38.134c0-40.519,38.133-44.552,61.574-50.501c10.383-2.593,17.831-5.669,17.831-12.368
			c0-9.019-9.702-12.848-17.831-13.325c-0.551,0-1.027,0-1.576,0h-0.069c-8.061,1.64-16.263,4.033-24.394,7.175
			c-5.261,2.051-10.319,4.306-15.101,6.833c-7.588,4.171-14.763,8.819-20.568,13.259c-27.064,21.456-39.23,50.294-27.885,73.87
			c12.438,25.831,49.341,37.519,89.594,31.097c6.834-1.095,13.733-2.734,20.635-4.921v-42.984h-0.477
			C119.206,174.846,111.964,183.523,102.331,188.581z"/>
		<path fill-rule="evenodd" clip-rule="evenodd" fill="#96989A" d="M196.084,109.242c-6.082-12.645-18.036-21.936-33.417-27.336
			c0,0.822,0.071,1.641,0.071,2.459v102.849c23.576-16.674,37.65-38.682,37.583-59.316v-0.272
			C200.321,121.268,198.955,115.118,196.084,109.242z"/>
		<path fill-rule="evenodd" clip-rule="evenodd" fill="#96989A" d="M98.706,133.225c-8.881,3.964-15.445,8.614-15.445,16.128
			c0,8.407,6.564,14.215,14.485,14.215c1.644,0,3.149-0.204,4.585-0.549c14.965-3.895,18.174-27.333,18.997-40.592
			c-4.171,3.215-11.69,6.081-18.997,9.227C101.097,132.13,99.867,132.68,98.706,133.225z"/>
		<path fill-rule="evenodd" clip-rule="evenodd" fill="#F28633" d="M196.152,74.182C187.609,33.11,141.145,8.85,92.419,20.13
			c-3.214,0.75-6.354,1.637-9.434,2.666c-31.98,10.452-55.554,34.712-62.528,62.117c15.106-19.82,39.433-34.922,62.528-41.618
			c8.544-2.461,16.882-3.826,24.602-3.826c22.416,0,55.151,8.473,55.151,44.895v66.56c20.84-15.51,33.963-37.996,34.712-61.298
			v-4.44C197.385,81.56,196.907,77.872,196.152,74.182z"/>
		<polygon fill-rule="evenodd" clip-rule="evenodd" fill="#4B4B4D" points="211.599,159.467 214.062,159.467 214.062,167.533 
			217.2,167.533 217.2,159.467 219.666,159.467 219.666,157.35 211.599,157.35 		"/>
		<polygon fill-rule="evenodd" clip-rule="evenodd" fill="#4B4B4D" points="223.964,163.365 227.658,163.365 227.658,161.314 
			223.964,161.314 223.964,159.401 227.859,159.401 227.859,157.35 220.895,157.35 220.895,167.533 228.133,167.533 
			228.133,165.551 223.964,165.551 		"/>
		<path fill-rule="evenodd" clip-rule="evenodd" fill="#4B4B4D" d="M235.514,165.551c-1.912,0-3.004-1.368-3.004-3.146
			c0-1.978,0.957-3.076,2.869-3.076c1.025,0,1.917,0.411,2.259,0.548l0.203-2.188c-0.342-0.135-1.302-0.477-2.807-0.477
			c-3.753,0-5.666,2.189-5.666,5.193c0,3.553,2.32,5.266,5.666,5.266c0.895,0,1.847-0.072,2.872-0.345l-0.135-2.393
			C237.428,165.139,236.612,165.551,235.514,165.551z"/>
		<polygon fill-rule="evenodd" clip-rule="evenodd" fill="#4B4B4D" points="245.97,164.387 242.969,157.35 239.344,157.35 
			239.344,167.533 242.075,167.533 242.075,160.492 242.147,160.492 245.085,167.533 248.636,167.533 248.636,157.35 245.97,157.35 
					"/>
		<path fill-rule="evenodd" clip-rule="evenodd" fill="#4B4B4D" d="M255.402,165.754c-1.302,0-1.909-1.299-1.909-3.277
			c0-1.985,0.607-3.353,1.909-3.353s1.913,1.367,1.913,3.353C257.315,164.456,256.704,165.754,255.402,165.754L255.402,165.754z
			 M255.402,157.212c-2.527,0-5.056,1.505-5.056,5.266c0,3.753,2.528,5.193,5.056,5.193s5.125-1.439,5.125-5.193
			C260.527,158.717,257.93,157.212,255.402,157.212z"/>
		<polygon fill-rule="evenodd" clip-rule="evenodd" fill="#4B4B4D" points="265.309,157.35 262.236,157.35 262.236,167.533 
			269.072,167.533 269.072,165.481 265.309,165.481 		"/>
		<path fill-rule="evenodd" clip-rule="evenodd" fill="#4B4B4D" d="M275.153,165.754c-1.302,0-1.914-1.299-1.914-3.277
			c0-1.985,0.612-3.353,1.914-3.353c1.298,0,1.979,1.367,1.979,3.353C277.132,164.456,276.451,165.754,275.153,165.754
			L275.153,165.754z M275.225,157.212h-0.071c-2.458,0-5.063,1.505-5.063,5.266c0,3.753,2.604,5.193,5.063,5.193h0.071
			c2.456,0,5.052-1.439,5.052-5.193C280.276,158.717,277.681,157.212,275.225,157.212z"/>
		<path fill-rule="evenodd" clip-rule="evenodd" fill="#4B4B4D" d="M286.903,163.568h1.509v1.913
			c-0.204,0.138-0.546,0.138-0.96,0.138c-1.433,0-2.594-1.094-2.594-3.076c0-1.981,1.089-3.35,3.481-3.35
			c1.028,0,1.912,0.273,2.465,0.546l0.2-2.117c-0.477-0.138-1.502-0.411-3.004-0.411c-4.309,0-6.354,2.255-6.354,5.266
			c0,3.415,2.663,5.193,6.219,5.193c1.43,0,2.8-0.276,3.483-0.552v-5.462h-4.446V163.568z"/>
		<rect x="293.263" y="157.35" fill-rule="evenodd" clip-rule="evenodd" fill="#4B4B4D" width="3.07" height="10.183"/>
		<path fill-rule="evenodd" clip-rule="evenodd" fill="#4B4B4D" d="M302.827,163.43h-1.16l1.16-3.69l0.069-0.273l1.028,3.963
			H302.827L302.827,163.43z M302.827,157.35h-1.567l-3.832,10.183h2.938l0.757-2.186h3.418l0.545,2.186h3.215l-3.622-10.183H302.827
			z"/>
		<path fill-rule="evenodd" clip-rule="evenodd" fill="#4B4B4D" d="M317.388,165.823c-0.895,0-1.167-0.891-1.167-2.186
			c0-1.233,0.272-2.12,1.167-2.12c0.749,0,1.16,0.887,1.16,2.12C318.548,164.933,318.137,165.823,317.388,165.823L317.388,165.823z
			 M321.487,156.594h-2.939v3.077c0,0.618,0.065,1.095,0.065,1.367c-0.411-0.476-0.749-0.818-1.226-1.022
			c-0.349-0.139-0.687-0.276-1.167-0.276c-2.116,0-3.076,2.051-3.076,3.829c0,2.255,0.96,4.102,3.211,4.102
			c0.346,0,0.754-0.072,1.032-0.207c0.477-0.207,0.888-0.549,1.226-1.161h0.072c0,0.408,0,0.815,0.067,1.23h2.8
			c0-0.48-0.065-0.891-0.065-1.368V156.594z"/>
		<path fill-rule="evenodd" clip-rule="evenodd" fill="#4B4B4D" d="M328.047,164.114c0,0.684-0.135,1.779-1.302,1.917h-0.276
			c-0.542,0-0.949-0.276-0.949-0.892c0-0.684,0.477-1.025,1.226-1.229l0.891-0.069h0.411V164.114L328.047,164.114z M330.641,162.612
			c0-1.575-0.612-2.873-3.623-2.873l-0.272,0.072c-1.298,0-2.255,0.27-2.938,0.477l0.135,1.844c0.622-0.342,1.578-0.684,2.466-0.684
			h0.338c0.891,0.069,1.302,0.614,1.302,1.029v0.204h-1.302c-2.593,0.135-3.897,1.022-3.897,2.593c0,1.437,1.094,2.396,2.6,2.396
			c0.479,0,0.887-0.072,1.298-0.207c0.411-0.207,0.821-0.549,1.302-0.959c0,0.345,0,0.684,0.065,1.029h2.6
			c0-0.48-0.071-1.095-0.071-1.709V162.612z"/>
		<rect x="336.724" y="157.35" fill-rule="evenodd" clip-rule="evenodd" fill="#4B4B4D" width="3.146" height="10.183"/>
		<polygon fill-rule="evenodd" clip-rule="evenodd" fill="#4B4B4D" points="348.478,164.387 348.412,164.387 345.401,157.35 
			341.851,157.35 341.851,167.533 344.518,167.533 344.518,160.492 344.587,160.492 347.521,167.533 351.143,167.533 
			351.143,157.35 348.478,157.35 		"/>
		<polygon fill-rule="evenodd" clip-rule="evenodd" fill="#4B4B4D" points="353.193,167.533 356.198,167.533 356.198,163.43 
			359.755,163.43 359.755,161.449 356.198,161.449 356.198,159.401 359.955,159.401 359.955,157.35 353.193,157.35 		"/>
		<path fill-rule="evenodd" clip-rule="evenodd" fill="#4B4B4D" d="M366.108,165.754c-1.296,0-1.914-1.299-1.914-3.277
			c0-1.985,0.618-3.353,1.914-3.353c1.298,0,1.916,1.367,1.916,3.353C368.024,164.456,367.406,165.754,366.108,165.754
			L366.108,165.754z M366.108,157.212c-2.528,0-5.056,1.505-5.056,5.266c0,3.753,2.527,5.193,5.056,5.193
			c2.53,0,5.13-1.439,5.13-5.193C371.238,158.717,368.639,157.212,366.108,157.212z"/>
		<path fill-rule="evenodd" clip-rule="evenodd" fill="#4B4B4D" d="M376.975,161.583h-1.092v-2.255h1.092
			c0.755,0.073,1.093,0.548,1.093,1.164C378.067,161.11,377.593,161.518,376.975,161.583L376.975,161.583z M378.96,162.478v-0.073
			c1.021-0.204,2.182-0.821,2.182-2.323c0-1.844-1.295-2.731-3.622-2.731h-4.575v10.183h3.072v-3.964h0.204l0.754,0.204
			c0.207,0.138,0.409,0.411,0.545,0.888l0.818,2.873h3.215l-1.022-3.214C380.047,162.954,379.637,162.681,378.96,162.478z"/>
		<polygon fill-rule="evenodd" clip-rule="evenodd" fill="#4B4B4D" points="389.068,163.772 387.498,157.35 382.985,157.35 
			382.985,167.533 385.65,167.533 385.65,159.812 385.723,159.812 388.047,167.533 389.957,167.533 392.422,159.812 
			392.422,167.533 395.222,167.533 395.222,157.35 390.782,157.35 		"/>
		<path fill-rule="evenodd" clip-rule="evenodd" fill="#4B4B4D" d="M401.642,163.43h-1.16l1.16-3.69l0.072-0.273h0.065l1.029,3.963
			H401.642L401.642,163.43z M401.642,157.35h-1.571l-3.761,10.183h2.939l0.755-2.186h3.35l0.618,2.186h3.139l-3.618-10.183H401.642z
			"/>
		<path fill-rule="evenodd" clip-rule="evenodd" fill="#4B4B4D" d="M413.605,167.67c0.891,0,1.844-0.072,2.8-0.345l-0.135-2.393
			c-0.272,0.207-1.094,0.618-2.188,0.618c-1.916,0-3.005-1.368-3.005-3.146c0-1.978,0.891-3.076,2.866-3.076
			c0.964,0,1.917,0.411,2.255,0.548l0.135-2.188c-0.272-0.135-1.229-0.477-2.728-0.477c-3.761,0-5.739,2.189-5.739,5.193
			c0,3.076,1.844,4.852,4.509,5.193l-0.751,1.161l0.407,0.345l0.614-0.138c0.411,0,0.614,0.204,0.614,0.48
			c0,0.342-0.272,0.546-0.885,0.546c-0.479,0-0.821-0.139-1.098-0.273l-0.338,0.753c0.476,0.204,1.163,0.272,1.706,0.272
			c1.298,0,2.189-0.614,2.189-1.367c0-0.684-0.546-1.091-1.367-1.091l-0.618,0.065l0.41-0.68H413.605z"/>
		<path fill-rule="evenodd" clip-rule="evenodd" fill="#4B4B4D" d="M422.351,163.43h-1.16l1.16-3.69l0.069-0.273h0.07l0.955,3.963
			H422.351L422.351,163.43z M422.351,157.35h-1.57l-3.826,10.183h3.004l0.749-2.186h3.351l0.62,2.186h3.143l-3.625-10.183H422.351z"
			/>
		<path fill-rule="evenodd" clip-rule="evenodd" fill="#4B4B4D" d="M421.529,156.117c0.272,0,0.479,0.073,0.821,0.208h0.069
			c0.408,0.138,0.754,0.204,1.025,0.204c1.096,0,1.645-0.957,1.645-1.913h-1.307l-0.477,0.479c-0.272,0-0.545-0.069-0.887-0.207
			l-0.069-0.065c-0.342-0.069-0.684-0.138-0.956-0.138c-1.095,0-1.644,0.957-1.644,1.909h1.305L421.529,156.117z"/>
		<path fill-rule="evenodd" clip-rule="evenodd" fill="#4B4B4D" d="M433.624,165.754c-1.302,0-1.909-1.299-1.909-3.277
			c0-1.985,0.607-3.353,1.909-3.353s1.983,1.367,1.983,3.353C435.607,164.456,434.926,165.754,433.624,165.754L433.624,165.754z
			 M433.697,157.212h-0.073c-2.454,0-5.055,1.505-5.055,5.266c0,3.753,2.601,5.193,5.055,5.193h0.073
			c2.455,0,5.055-1.439,5.055-5.193C438.752,158.717,436.152,157.212,433.697,157.212z"/>
	</g>
	<path fill-rule="evenodd" clip-rule="evenodd" fill="#F28633" d="M100.755,79.24c-4.854,0-11.068,1.433-17.77,3.895
		c-12.227,4.444-26.236,12.027-37.171,19.613l21.318,12.299c5.126-2.321,10.524-4.03,15.853-5.466
		c19.002-5.055,37.176-6.491,37.176-17.016C120.162,83,109.229,79.24,100.755,79.24z"/>
</g>
</svg>
