<svg width="454" height="230" viewBox="0 0 454 230" fill="none" xmlns="http://www.w3.org/2000/svg">
<path fill-rule="evenodd" clip-rule="evenodd" d="M243.715 131.316C242.969 131.52 242.213 131.585 241.322 131.585C237.157 131.585 233.739 128.785 233.739 124.82C233.739 121.198 237.157 119.012 241.805 117.1C242.489 116.827 243.103 116.551 243.714 116.348C247.611 114.846 251.573 113.475 253.762 111.976C253.286 118.261 251.646 129.468 243.715 131.316ZM246.519 72.269C245.559 72.269 244.671 72.269 243.715 72.338C233.536 72.952 222.466 76.916 214.807 82.862V102.339C221.572 95.983 233.128 91.269 242.969 91.269H243.715C248.024 91.473 253.149 93.316 253.149 97.622C253.149 100.833 249.182 102.339 243.715 103.564C231.412 106.437 211.395 108.35 211.395 127.689C211.395 139.446 221.572 145.938 232.714 145.938C236.75 145.938 240.504 145.116 243.715 143.545C248.842 141.151 252.668 136.984 254.377 131.584H254.647V145.865H275.565V93.728C275.564 76.301 258.337 72.269 246.519 72.269Z" fill="white"/>
<path fill-rule="evenodd" clip-rule="evenodd" d="M426.45 52.587C417.635 52.587 411.968 54.503 411.968 60.994C411.968 67.827 418.253 69.329 426.45 69.329C434.854 69.329 441.007 67.827 441.007 60.994C441.007 54.503 435.337 52.587 426.45 52.587Z" fill="white"/>
<path fill-rule="evenodd" clip-rule="evenodd" d="M414.154 145.938H438.752V72.268C434.926 73.563 430.894 74.385 426.45 74.385C422.009 74.385 417.979 73.563 414.154 72.268V145.938Z" fill="white"/>
<path fill-rule="evenodd" clip-rule="evenodd" d="M348.75 92.495H360.576V124.89C360.576 138.694 370.14 145.938 384.563 145.938C393.033 145.938 400.825 142.792 404.72 137.53V119.966C401.917 125.025 398.567 127.075 393.17 127.075C389.135 127.075 385.177 124.548 385.177 119.627V92.495H407.317V72.338H385.45V54.98H372.257C368.432 65.432 360.918 76.024 348.75 78.625V92.495Z" fill="white"/>
<path fill-rule="evenodd" clip-rule="evenodd" d="M341.92 80.334C335.698 74.181 327.156 72.268 319.295 72.268C293.943 72.268 282.397 87.029 282.397 109.034C282.397 128.58 292.507 145.938 317.251 145.938C326.818 145.938 336.045 143.131 341.921 136.094V116.278C336.932 122.566 331.26 126.254 322.786 126.254C310.829 126.254 306.244 118.668 306.244 110.606C306.244 99.674 311.923 93.932 323.47 93.932C329.409 93.932 335.699 95.506 341.921 101.86V80.334H341.92Z" fill="white"/>
<path fill-rule="evenodd" clip-rule="evenodd" d="M102.331 188.581C96.176 191.789 89.003 193.568 81.417 193.568C60.096 193.568 40.756 179.967 40.756 155.434C40.756 114.915 78.889 110.882 102.33 104.933C112.713 102.34 120.161 99.264 120.161 92.565C120.161 83.546 110.459 79.717 102.33 79.24C101.779 79.24 101.303 79.24 100.754 79.24H100.685C92.624 80.88 84.422 83.273 76.291 86.415C71.03 88.466 65.972 90.721 61.19 93.248C53.602 97.419 46.427 102.067 40.622 106.507C13.558 127.963 1.39199 156.801 12.737 180.377C25.175 206.208 62.078 217.896 102.331 211.474C109.165 210.379 116.064 208.74 122.966 206.553V163.569H122.489C119.206 174.846 111.964 183.523 102.331 188.581Z" fill="white"/>
<path fill-rule="evenodd" clip-rule="evenodd" d="M196.084 109.242C190.002 96.597 178.048 87.306 162.667 81.906C162.667 82.728 162.738 83.547 162.738 84.365V187.214C186.314 170.54 200.388 148.532 200.321 127.898V127.626C200.321 121.268 198.955 115.118 196.084 109.242Z" fill="white"/>
<path fill-rule="evenodd" clip-rule="evenodd" d="M98.706 133.225C89.825 137.189 83.261 141.839 83.261 149.353C83.261 157.76 89.825 163.568 97.746 163.568C99.39 163.568 100.895 163.364 102.331 163.019C117.296 159.124 120.505 135.686 121.328 122.427C117.157 125.642 109.638 128.508 102.331 131.654C101.097 132.13 99.867 132.68 98.706 133.225Z" fill="white"/>
<path fill-rule="evenodd" clip-rule="evenodd" d="M196.152 74.182C187.609 33.11 141.145 8.84999 92.419 20.13C89.205 20.88 86.065 21.767 82.985 22.796C51.005 33.248 27.431 57.508 20.457 84.913C35.563 65.093 59.89 49.991 82.985 43.295C91.529 40.834 99.867 39.469 107.587 39.469C130.003 39.469 162.738 47.942 162.738 84.364V150.924C183.578 135.414 196.701 112.928 197.45 89.626V85.186C197.385 81.56 196.907 77.872 196.152 74.182Z" fill="white"/>
<path fill-rule="evenodd" clip-rule="evenodd" d="M211.599 159.467H214.062V167.533H217.2V159.467H219.666V157.35H211.599V159.467Z" fill="white"/>
<path fill-rule="evenodd" clip-rule="evenodd" d="M223.964 163.365H227.658V161.314H223.964V159.401H227.859V157.35H220.895V167.533H228.133V165.551H223.964V163.365Z" fill="white"/>
<path fill-rule="evenodd" clip-rule="evenodd" d="M235.514 165.551C233.602 165.551 232.51 164.183 232.51 162.405C232.51 160.427 233.467 159.329 235.379 159.329C236.404 159.329 237.296 159.74 237.638 159.877L237.841 157.689C237.499 157.554 236.539 157.212 235.034 157.212C231.281 157.212 229.368 159.401 229.368 162.405C229.368 165.958 231.688 167.671 235.034 167.671C235.929 167.671 236.881 167.599 237.906 167.326L237.771 164.933C237.428 165.139 236.612 165.551 235.514 165.551Z" fill="white"/>
<path fill-rule="evenodd" clip-rule="evenodd" d="M245.97 164.387L242.969 157.35H239.344V167.533H242.075V160.492H242.147L245.085 167.533H248.636V157.35H245.97V164.387Z" fill="white"/>
<path fill-rule="evenodd" clip-rule="evenodd" d="M255.402 165.754C254.1 165.754 253.493 164.455 253.493 162.477C253.493 160.492 254.1 159.124 255.402 159.124C256.704 159.124 257.315 160.491 257.315 162.477C257.315 164.456 256.704 165.754 255.402 165.754ZM255.402 157.212C252.875 157.212 250.346 158.717 250.346 162.478C250.346 166.231 252.874 167.671 255.402 167.671C257.93 167.671 260.527 166.232 260.527 162.478C260.527 158.717 257.93 157.212 255.402 157.212Z" fill="white"/>
<path fill-rule="evenodd" clip-rule="evenodd" d="M265.309 157.35H262.236V167.533H269.072V165.481H265.309V157.35Z" fill="white"/>
<path fill-rule="evenodd" clip-rule="evenodd" d="M275.153 165.754C273.851 165.754 273.239 164.455 273.239 162.477C273.239 160.492 273.851 159.124 275.153 159.124C276.451 159.124 277.132 160.491 277.132 162.477C277.132 164.456 276.451 165.754 275.153 165.754ZM275.225 157.212H275.154C272.696 157.212 270.091 158.717 270.091 162.478C270.091 166.231 272.695 167.671 275.154 167.671H275.225C277.681 167.671 280.277 166.232 280.277 162.478C280.276 158.717 277.681 157.212 275.225 157.212Z" fill="white"/>
<path fill-rule="evenodd" clip-rule="evenodd" d="M286.903 163.568H288.412V165.481C288.208 165.619 287.866 165.619 287.452 165.619C286.019 165.619 284.858 164.525 284.858 162.543C284.858 160.562 285.947 159.193 288.339 159.193C289.367 159.193 290.251 159.466 290.804 159.739L291.004 157.622C290.527 157.484 289.502 157.211 288 157.211C283.691 157.211 281.646 159.466 281.646 162.477C281.646 165.892 284.309 167.67 287.865 167.67C289.295 167.67 290.665 167.394 291.348 167.118V161.656H286.902V163.568H286.903Z" fill="white"/>
<path d="M296.333 157.35H293.263V167.533H296.333V157.35Z" fill="white"/>
<path fill-rule="evenodd" clip-rule="evenodd" d="M302.827 163.43H301.667L302.827 159.74L302.896 159.467L303.924 163.43H302.827ZM302.827 157.35H301.26L297.428 167.533H300.366L301.123 165.347H304.541L305.086 167.533H308.301L304.679 157.35H302.827Z" fill="white"/>
<path fill-rule="evenodd" clip-rule="evenodd" d="M317.388 165.823C316.493 165.823 316.221 164.932 316.221 163.637C316.221 162.404 316.493 161.517 317.388 161.517C318.137 161.517 318.548 162.404 318.548 163.637C318.548 164.933 318.137 165.823 317.388 165.823ZM321.487 156.594H318.548V159.671C318.548 160.289 318.613 160.766 318.613 161.038C318.202 160.562 317.864 160.22 317.387 160.016C317.038 159.877 316.7 159.74 316.22 159.74C314.104 159.74 313.144 161.791 313.144 163.569C313.144 165.824 314.104 167.671 316.355 167.671C316.701 167.671 317.109 167.599 317.387 167.464C317.864 167.257 318.275 166.915 318.613 166.303H318.685C318.685 166.711 318.685 167.118 318.752 167.533H321.552C321.552 167.053 321.487 166.642 321.487 166.165V156.594Z" fill="white"/>
<path fill-rule="evenodd" clip-rule="evenodd" d="M328.047 164.114C328.047 164.798 327.912 165.893 326.745 166.031H326.469C325.927 166.031 325.52 165.755 325.52 165.139C325.52 164.455 325.997 164.114 326.746 163.91L327.637 163.841H328.048V164.114H328.047ZM330.641 162.612C330.641 161.037 330.029 159.739 327.018 159.739L326.746 159.811C325.448 159.811 324.491 160.081 323.808 160.288L323.943 162.132C324.565 161.79 325.521 161.448 326.409 161.448H326.747C327.638 161.517 328.049 162.062 328.049 162.477V162.681H326.747C324.154 162.816 322.85 163.703 322.85 165.274C322.85 166.711 323.944 167.67 325.45 167.67C325.929 167.67 326.337 167.598 326.748 167.463C327.159 167.256 327.569 166.914 328.05 166.504C328.05 166.849 328.05 167.188 328.115 167.533H330.715C330.715 167.053 330.644 166.438 330.644 165.824V162.612H330.641Z" fill="white"/>
<path d="M339.87 157.35H336.724V167.533H339.87V157.35Z" fill="white"/>
<path fill-rule="evenodd" clip-rule="evenodd" d="M348.478 164.387H348.412L345.401 157.35H341.851V167.533H344.518V160.492H344.587L347.521 167.533H351.143V157.35H348.478V164.387Z" fill="white"/>
<path fill-rule="evenodd" clip-rule="evenodd" d="M353.193 167.533H356.198V163.43H359.755V161.449H356.198V159.401H359.955V157.35H353.193V167.533Z" fill="white"/>
<path fill-rule="evenodd" clip-rule="evenodd" d="M366.108 165.754C364.812 165.754 364.194 164.455 364.194 162.477C364.194 160.492 364.812 159.124 366.108 159.124C367.406 159.124 368.024 160.491 368.024 162.477C368.024 164.456 367.406 165.754 366.108 165.754ZM366.108 157.212C363.58 157.212 361.052 158.717 361.052 162.478C361.052 166.231 363.579 167.671 366.108 167.671C368.638 167.671 371.238 166.232 371.238 162.478C371.238 158.717 368.639 157.212 366.108 157.212Z" fill="white"/>
<path fill-rule="evenodd" clip-rule="evenodd" d="M376.975 161.583H375.883V159.328H376.975C377.73 159.401 378.068 159.876 378.068 160.492C378.067 161.11 377.593 161.518 376.975 161.583ZM378.96 162.478V162.405C379.981 162.201 381.142 161.584 381.142 160.082C381.142 158.238 379.847 157.351 377.52 157.351H372.945V167.534H376.017V163.57H376.221L376.975 163.774C377.182 163.912 377.384 164.185 377.52 164.662L378.338 167.535H381.553L380.531 164.321C380.047 162.954 379.637 162.681 378.96 162.478Z" fill="white"/>
<path fill-rule="evenodd" clip-rule="evenodd" d="M389.068 163.772L387.498 157.35H382.985V167.533H385.65V159.812H385.723L388.047 167.533H389.957L392.422 159.812V167.533H395.222V157.35H390.782L389.068 163.772Z" fill="white"/>
<path fill-rule="evenodd" clip-rule="evenodd" d="M401.642 163.43H400.482L401.642 159.74L401.714 159.467H401.779L402.808 163.43H401.642ZM401.642 157.35H400.071L396.31 167.533H399.249L400.004 165.347H403.354L403.972 167.533H407.111L403.493 157.35H401.642Z" fill="white"/>
<path fill-rule="evenodd" clip-rule="evenodd" d="M413.605 167.67C414.496 167.67 415.449 167.598 416.405 167.325L416.27 164.932C415.998 165.139 415.176 165.55 414.082 165.55C412.166 165.55 411.077 164.182 411.077 162.404C411.077 160.426 411.968 159.328 413.943 159.328C414.907 159.328 415.86 159.739 416.198 159.876L416.333 157.688C416.061 157.553 415.104 157.211 413.605 157.211C409.844 157.211 407.866 159.4 407.866 162.404C407.866 165.48 409.71 167.256 412.375 167.597L411.624 168.758L412.031 169.103L412.645 168.965C413.056 168.965 413.259 169.169 413.259 169.445C413.259 169.787 412.987 169.991 412.374 169.991C411.895 169.991 411.553 169.852 411.276 169.718L410.938 170.471C411.414 170.675 412.101 170.743 412.644 170.743C413.942 170.743 414.833 170.129 414.833 169.376C414.833 168.692 414.287 168.285 413.466 168.285L412.848 168.35L413.258 167.67H413.605Z" fill="white"/>
<path fill-rule="evenodd" clip-rule="evenodd" d="M422.351 163.43H421.191L422.351 159.74L422.42 159.467H422.49L423.445 163.43H422.351ZM422.351 157.35H420.781L416.955 167.533H419.959L420.708 165.347H424.059L424.679 167.533H427.822L424.197 157.35H422.351Z" fill="white"/>
<path fill-rule="evenodd" clip-rule="evenodd" d="M421.529 156.117C421.801 156.117 422.008 156.19 422.35 156.325H422.419C422.827 156.463 423.173 156.529 423.444 156.529C424.54 156.529 425.089 155.572 425.089 154.616H423.782L423.305 155.095C423.033 155.095 422.76 155.026 422.418 154.888L422.349 154.823C422.007 154.754 421.665 154.685 421.393 154.685C420.298 154.685 419.749 155.642 419.749 156.594H421.054L421.529 156.117Z" fill="white"/>
<path fill-rule="evenodd" clip-rule="evenodd" d="M433.624 165.754C432.322 165.754 431.715 164.455 431.715 162.477C431.715 160.492 432.322 159.124 433.624 159.124C434.926 159.124 435.607 160.491 435.607 162.477C435.607 164.456 434.926 165.754 433.624 165.754ZM433.697 157.212H433.624C431.17 157.212 428.569 158.717 428.569 162.478C428.569 166.231 431.17 167.671 433.624 167.671H433.697C436.152 167.671 438.752 166.232 438.752 162.478C438.752 158.717 436.152 157.212 433.697 157.212Z" fill="white"/>
<path fill-rule="evenodd" clip-rule="evenodd" d="M100.755 79.24C95.901 79.24 89.687 80.673 82.985 83.135C70.758 87.579 56.749 95.162 45.814 102.748L67.132 115.047C72.258 112.726 77.656 111.017 82.985 109.581C101.987 104.526 120.161 103.09 120.161 92.565C120.162 83 109.229 79.24 100.755 79.24Z" fill="white"/>
</svg>
